<svg xmlns="http://www.w3.org/2000/svg" viewBox="0 0 128 128" width="90" height="90">
  <path fill="#2396ED" d="M124.8 52.1c-4.3-2.5-10-2.8-14.8-1.4-.6-5.2-4-9.7-8-12.9l-1.6-1.3-1.4 1.6c-2.7 3.3-3.4 8.8-3 13 .3 3.2 1.4 6.4 3.4 9-1.6.9-3.3 1.7-5 2.3-2.7.9-5.6 1.4-8.4 1.4H1.1l-.2 1.5c-.5 5.3.2 10.7 2.3 15.7 2.4 5.8 6.4 10.3 11.6 13 5.8 3 12.8 4 19.4 4 3.7 0 7.4-.3 11.1-1 6-1.1 11.7-3.3 16.7-6.5 4.2-2.7 7.8-6.1 10.9-10.1 4.8-6.2 7.7-13.2 9.6-20.6h.8c5.6 0 9.1-2.2 11-4.1 1.4-1.3 2.4-2.8 3-4.5l.4-1.4-1.4-.7zM29 29.6h-9.2v9.2H29zm-1.7 0H18.1v9.2h9.2zm11.6 0h-9.2v9.2h9.2zm11.7 0h-9.2v9.2h9.2zm-35 11.7h-9.2v9.2h9.2zm11.7 0H18.1v9.2h9.2zm11.6 0h-9.2v9.2h9.2zm11.7 0h-9.2v9.2h9.2zm11.6 0h-9.2v9.2h9.2zM27.3 52.9h-9.2v9.2h9.2zm11.6 0h-9.2v9.2h9.2zm11.7 0h-9.2v9.2h9.2zm11.6 0h-9.2v9.2h9.2z"/>
</svg>
