<svg xmlns="http://www.w3.org/2000/svg" viewBox="0 0 128 128" width="128" height="128">
  <path d="M67.3 13c-11.6-.4-21.3 2.1-28.8 6.3-2.3 1.3-6.5 4.4-7.1 8.5-.4 2.7 1.1 5.4 4.4 7.8-2.1 1.3-9.5 6.4-8.5 11.9.6 3.3 4.3 5.9 7.8 7.5-1.2 1.8-3.4 5.9-2 9.7 1.5 4 5.7 5.5 8.4 6.3-.4 1.8-.9 6.2 1.6 9.9 2.7 4 7.7 4.9 10.2 5.2l-.3 9c-.2 5.8-.4 11.5 3.4 15.3 1.8 1.8 4.3 2.7 7.3 2.7.7 0 1.4 0 2.2-.1 5.5-.7 9.2-3.1 10.6-7.3 1-3 .7-6.3.4-9.5l-1.1-10.5c3.3.2 7-.3 10-2.5 3.7-2.7 5.2-6.8 5.6-8.3.4-.3 8.1-5.8 8.6-13.2.3-4.5-1.6-8.8-5.5-12.6 1.4-3.1 2.3-8.1-.1-12.9-3-6.2-10.2-9.1-14.8-10.6C73.7 14.5 71.2 13.1 67.3 13z" fill="#336791"/>
  <path d="M95.3 62.1c-.2 5.6-6.4 10.2-7.5 10.9-.1.1-.2.1-.2.2-.3 1.2-1.6 5-4.7 7.3-2.5 1.8-5.8 2.4-9 2.1L75 83c-.4.3-.8.6-1.3.7-1.2.4-2.4.2-3.4-.4l1.2 11.5c.3 2.9.5 5.8-.3 8.3-1 3.1-3.9 5-8.5 5.6-4.8.6-7.7-.8-9-2.1-3-3-2.8-8.1-2.6-13.4l.3-9.6c.1-1.5-.7-2-1.7-2.2-2.4-.3-6.6-1.2-8.7-4.4-1.8-2.7-1.5-5.9-1.2-7.7l.1-.5c-2.8-1-5.9-2.6-7-5.3-1-2.7.2-5.6 1.6-7.6l.3-.5c-3.5-1.7-6.2-4-6.7-6.6-.7-3.8 4.2-7.8 7.5-9.9l.3-.2c-2.6-2.1-3.5-4.3-3.3-6.2.4-3 3.8-5.5 5.9-6.7 6.8-3.8 15.9-6.1 26.5-5.8 3.4.1 5.7 1.3 10.8 3.1 4.2 1.4 10.6 4 13.2 9.3 2 4.1 1 8.2-.1 11.1l-.2.5c3.3 3.3 4.8 6.9 4.6 10.6z" fill="#fff"/>
  <path d="M84.7 41.4c-1.5 0-2.8.7-3.7 1.8-.2-3.2-1.3-5.6-3.3-7.2-2.3-1.8-5.3-2.3-7.7-2.3-3 0-5.6.7-6.3.9-.7-.2-2-.4-3.6-.4-3.1 0-7.2.9-9.7 4.5-2.2 3.2-2.3 7.7-2.2 10 0 .4 0 .8.1 1.1-1.3.7-3.8 2.4-4 5.1-.2 2.4 1.3 4.9 4.6 7.3-.2.5-.3 1-.4 1.5-.5 3.3 1 6.1 4 7.6 1.5.8 3.1 1.1 4.5 1.1 1 0 1.9-.2 2.6-.4.2 1.2.6 2.4 1.3 3.5 1.4 2.4 3.7 3.8 6.1 3.8.6 0 1.1-.1 1.6-.2 3-.8 5-3.5 5.6-7.3.3-2.1.2-4.4-.3-6.6 1-.2 1.8-.7 2.4-1.2l.4-.3c.7.1 1.3.1 2 .1 3.2 0 6.1-.9 8-2.6 2.2-1.9 3.1-4.6 2.7-7.5-.6-3.7-3.1-6.6-5.3-8.5.7-1.4 1.1-3.1.6-4.8z" fill="#336791"/>
  <path d="M82.7 55.2c.7 4.2-2.3 7.1-7.1 7.8-.9.1-1.8.1-2.6 0-.8 1.7-.9 4.4-.5 6.5.6 3.2-1.5 5.5-3.8 6.1-2.7.7-5.3-1.1-6.4-4-1-2.6-.7-5.8.4-7.5-1.7-.2-3.6-.7-5-1.7-2.2-1.1-3.2-3.1-2.9-5.4.4-2.5 2.8-3.5 3.1-4.9.3-1.2-.7-2.5-2.4-4-2.5-2.1-3.3-3.6-3.2-4.8.2-2 2.3-3.2 3.5-3.8 0-2.3.1-6.1 1.8-8.6 2.8-4.1 8-3.4 10.8-2.6.9-.3 3.3-.9 6.2-.9 2.1 0 4.3.4 5.9 1.6 2.1 1.7 2.7 4.6 2.5 8.6 0 .6-.1 1.1-.2 1.7 2.5 1.8 5.6 5 6.3 9.3l-6.4-1.3z" fill="#fff"/>
  <path d="M69.3 44c1.7 0 3 .8 3 1.8s-1.3 1.8-3 1.8-3-.8-3-1.8 1.3-1.8 3-1.8M60.5 44c1.4 0 2.5.8 2.5 1.8s-1.1 1.8-2.5 1.8-2.5-.8-2.5-1.8 1.1-1.8 2.5-1.8" fill="#336791"/>
  <path d="M65 56.5c-1.5 0-3.2-.5-3.5-1.8-.1-.5.2-1 .6-1.2.5-.2 1 .1 1.2.5.2.4 1.5.7 2.8.3.5-.2 1 .1 1.2.6.2.5-.1 1-.6 1.2-.6.2-1.2.3-1.7.4z" fill="#336791"/>
</svg>