<svg xmlns="http://www.w3.org/2000/svg" viewBox="0 0 128 128" width="128" height="128">
  <circle cx="64" cy="64" r="60" fill="#E6522C"/>
  <g fill="#fff">
    <path d="M64 20c-24.3 0-44 19.7-44 44s19.7 44 44 44 44-19.7 44-44-19.7-44-44-44zm0 80c-4 0-7.3-2-7.3-4.5h14.6c0 2.5-3.3 4.5-7.3 4.5zm18.3-9.2H45.7v-5.5h36.6v5.5zm-.4-9.2H46.1c-4.6-4.4-7.7-9.4-7.7-17.3 0-12.8 8.2-16.5 12.8-22 0 0 .9 9.2 7.3 12.8 5.6 3.2 10.4 1.3 12.3-1.4 4.1 6 1.4 13.3-1.8 16.9 0 0 3.7-.9 6.4-4.6 1.4 3.7 0 8.2-1.8 11h8.2c1.4-3.7 2.3-7.3 2.3-11.9 0-16.5-12.8-22.9-12.8-22.9s1.8 4.6-1.8 10.1c-2.7 4.1-7.3 4.6-9.2 3.7-3.2-1.6-3.7-5.5-1.8-8.2-5.5.9-7.3-2.7-7.3-2.7s7.3-2.7 5.5-9.2c-.9-2.7-4.6-3.7-7.3-1.8-1.8 1.4-2.3 3.7-.9 5.5-5.5-.9-7.3 3.7-7.3 3.7s-1.8-5.5 2.7-9.2c3.7-3.2 9.2-1.8 11.9.9 3.7 3.7 1.8 8.2 1.8 8.2 4.6-4.6 2.7-11 .9-13.7 7.3 3.7 12.8 12.8 12.8 22 0 4.1-.9 7.8-2.3 11z"/>
  </g>
</svg>