<svg xmlns="http://www.w3.org/2000/svg" viewBox="0 0 128 128" width="90" height="90">
  <path fill="#D82C20" d="M64 19.2c-3.6 0-6.5 4.9-6.5 11 0 2.1.3 4 .9 5.7-3.2-.5-6.8-1.8-9.2-4.1-1.6-1.5-3.8-1.7-5.3-.3-1.5 1.5-1.3 4.1.5 5.8 3.3 3.1 8.4 5.1 13.2 5.9.2 2.1.8 4 1.7 5.4-3.7 1.2-8.2 1.4-12.2.2-2-.6-4.1.4-4.7 2.2-.6 1.8.3 3.8 2.1 4.5 2.5.9 5.2 1.3 7.9 1.3 3.1 0 6.2-.6 8.8-1.8 1.8 2.2 4.5 3.6 7.6 3.6s5.8-1.4 7.6-3.6c2.6 1.2 5.7 1.8 8.8 1.8 2.7 0 5.4-.4 7.9-1.3 1.8-.7 2.7-2.7 2.1-4.5-.6-1.8-2.7-2.8-4.7-2.2-4 1.2-8.5 1-12.2-.2.9-1.4 1.5-3.3 1.7-5.4 4.8-.8 9.9-2.8 13.2-5.9 1.8-1.7 2-4.3.5-5.8-1.5-1.4-3.7-1.2-5.3.3-2.4 2.3-6 3.6-9.2 4.1.6-1.7.9-3.6.9-5.7 0-6.1-2.9-11-6.5-11z"/>
  <ellipse fill="#D82C20" cx="64" cy="90" rx="42" ry="18"/>
  <path fill="#fff" d="M64 82c-22.1 0-40 7.2-40 16s17.9 16 40 16 40-7.2 40-16-17.9-16-40-16zm0 28c-18.8 0-34-5.4-34-12s15.2-12 34-12 34 5.4 34 12-15.2 12-34 12z"/>
</svg>
